<?xml version="1.0" encoding="utf-8"?>
<!-- Generator: Adobe Illustrator 28.0.0, SVG Export Plug-In . SVG Version: 6.00 Build 0)  -->
<svg version="1.1" id="Слой_1" xmlns="http://www.w3.org/2000/svg" xmlns:xlink="http://www.w3.org/1999/xlink" x="0px" y="0px"
	 viewBox="0 0 595.28 841.89" style="enable-background:new 0 0 595.28 841.89;" xml:space="preserve">
<style type="text/css">
	.st0{fill:#FFFFFF;}
	.st1{fill:none;}
	.st2{font-family:'Montserrat-Medium';}
	.st3{font-size:41.1203px;}
	.st4{letter-spacing:9;}
</style>
<g>
	<path class="st0" d="M234.62,560.33c1.02-1.23,2.03-2.46,3.05-3.7c-8.89-10.86-17.96-22.6-27.05-35.27
		c-10.56-14.71-19.96-29.01-28.34-42.68l-4.13-6.96l-3.96-7.06l-1.98-3.53l-1.9-3.57l-3.78-7.16c-1.25-2.39-2.4-4.83-3.61-7.24
		c-1.17-2.43-2.43-4.82-3.54-7.28l-6.73-14.73c-8.74-19.75-16.05-40.11-22.26-60.81c-6.13-20.72-11.06-41.82-14.74-63.17
		c-3.68-21.35-6.03-42.95-7.36-64.65c-0.21,21.75,1.22,43.53,3.98,65.17c2.91,21.6,7.14,43.07,12.89,64.15
		c5.65,21.11,12.92,41.79,21.42,61.94c2.16,5.02,4.46,9.99,6.69,14.98c1.11,2.49,2.37,4.92,3.55,7.39c1.21,2.45,2.37,4.93,3.63,7.36
		l3.79,7.28l1.9,3.63l1.99,3.59l3.98,7.18l4.16,7.08c9.88,16.9,22.12,35.22,37.29,53.95C220.62,544.94,227.68,552.96,234.62,560.33z
		"/>
	<path class="st0" d="M309.83,624.11c-0.82-0.66-1.54-1.24-2.13-1.71c-0.6,1.03-1.19,2.06-1.79,3.09c0.5,0.37,1.11,0.83,1.81,1.35
		c29.65,21.92,54.76,35.55,55.04,35.1C363.04,661.51,340.72,648.81,309.83,624.11z"/>
</g>
<g>
	<path class="st0" d="M437.7,465.01c-1.44-5.18-3.11-10.28-4.66-15.42l-2.53-7.65c-0.42-1.27-0.84-2.55-1.27-3.82
		c-0.19-0.56-0.65-1.9-1.33-3.8c-1.62-4.56-4.07-11.19-4.41-12.11c-1.46,2.52-2.92,5.05-4.38,7.57c3.65,9.23,8.37,21.77,13.35,36.81
		c23.9,72.19,29.12,125.55,29.04,124.6C457.72,548.58,449.78,506.22,437.7,465.01z"/>
	<path class="st0" d="M390.97,364.26c1.46-1.83,2.92-3.66,4.37-5.49c-4.57-9.62-10.58-21.44-18.27-34.63
		c-8.85-15.18-16.37-26.12-21.43-33.44c-15-21.71-29.03-38.78-39.57-50.87c-28.25-32.38-60.32-61.37-95.34-85.98
		c33.26,26.91,63.98,56.77,91.2,89.5c13.58,16.39,26.44,33.37,38.25,51.06c5.58,8.36,18.54,28,32.86,54.64
		C386.35,355.21,389.04,360.43,390.97,364.26z"/>
</g>
<g>
	<path class="st0" d="M494.55,234.26c-7.57-8.71-15.67-17.47-24.36-26.2c-45-45.23-92.69-76.76-135.46-98.95
		c24.39,15.57,50.94,34.38,78.37,57.01c30.42,25.1,56.09,50.09,77.45,73.15C491.88,237.61,493.21,235.94,494.55,234.26z"/>
	<path class="st0" d="M567.66,455.89c0.2-29.49-3.04-59.2-9.78-87.92c-0.96-4.56-2.88-11.08-4-15.65
		c-1.09-3.57-2.98-10.04-4.08-13.54c-1.25-3.57-3.35-9.84-4.65-13.36c0,0-2.05-5.51-4.44-11.3c-3.53-8.56-12.35-27.14-25.14-51.09
		c-1.53,2.5-3.06,5-4.59,7.49c5.76,9.75,11.77,20.9,17.6,33.43c0,0,8.14,17.24,14.28,35.05c20.83,60.33,25.65,125.49,17.54,188.69
		C565.08,504.13,567.52,479.98,567.66,455.89z"/>
</g>
<g>
	<path class="st0" d="M69.86,378.28c38.67-61.71,94.22-113.04,158.47-147.48c77.48-41.74,168.51-58.79,255.73-47.53
		c-42.5-2.43-85.05,0.45-126.57,8.74C242.06,214.54,138.64,283.12,69.86,378.28L69.86,378.28z"/>
</g>
<g>
	<path class="st0" d="M401.84,350.62c-36.29,6.31-86.25,19.51-137.7,50.21C162.66,461.38,108.85,558.06,109.4,558.51
		c0.44,0.36,6.71-8.95,6.71-8.95c48.17-57.93,104.45-125.61,198.24-165.76c18.44-7.89,45.69-17.87,80.72-24.69
		C397.33,356.28,399.58,353.45,401.84,350.62z"/>
	<path class="st0" d="M473.99,337.79c-0.9,1.78-1.81,3.56-2.71,5.34c37.72-5.57,76.28-7.4,115.18-5.41
		C548.75,333.48,511.04,333.6,473.99,337.79z"/>
</g>
<g>
	<g>
		<path class="st0" d="M220.55,657.59c4.48-6.39,8.96-12.79,13.44-19.18l2.42,1.73c-4.45,6.27-8.91,12.55-13.36,18.82
			C222.21,658.5,221.38,658.05,220.55,657.59z"/>
		<polygon class="st0" points="282.02,569.42 288.86,559.57 290.76,560.88 283.96,570.77 		"/>
		<polygon class="st0" points="295.71,549.72 302.56,539.86 304.35,541.1 297.55,550.99 		"/>
		<polygon class="st0" points="309.41,530.01 316.25,520.15 317.94,521.32 311.14,531.21 		"/>
		<polygon class="st0" points="323.1,510.3 329.95,500.44 331.53,501.53 324.73,511.43 		"/>
		<polygon class="st0" points="336.8,490.59 343.64,480.73 345.12,481.75 338.33,491.64 		"/>
		<polygon class="st0" points="350.49,470.88 357.34,461.02 358.71,461.97 351.92,471.86 		"/>
		<polygon class="st0" points="364.19,451.17 371.03,441.31 372.3,442.19 365.51,452.08 		"/>
		<polygon class="st0" points="377.88,431.46 384.73,421.6 385.89,422.41 379.1,432.3 		"/>
		<polygon class="st0" points="391.57,411.75 398.42,401.89 399.48,402.63 392.69,412.52 		"/>
		<polygon class="st0" points="405.27,392.04 412.12,382.19 413.07,382.85 406.28,392.74 		"/>
		<polygon class="st0" points="418.96,372.33 425.81,362.48 426.66,363.06 419.87,372.96 		"/>
		<polygon class="st0" points="432.66,352.62 439.51,342.77 440.25,343.28 433.46,353.17 		"/>
		<polygon class="st0" points="446.35,332.91 453.2,323.06 453.84,323.5 447.05,333.39 		"/>
		<polygon class="st0" points="460.05,313.2 466.9,303.35 467.43,303.72 460.64,313.61 		"/>
		<polygon class="st0" points="473.74,293.49 480.59,283.64 481.02,283.94 474.23,293.83 		"/>
		<polygon class="st0" points="487.44,273.78 494.28,263.93 494.61,264.16 487.82,274.05 		"/>
		<polygon class="st0" points="501.13,254.07 507.98,244.22 508.21,244.38 501.41,254.27 		"/>
		<polygon class="st0" points="514.83,234.36 521.67,224.51 521.8,224.59 515,234.49 		"/>
		<polygon class="st0" points="528.52,214.66 535.37,204.8 535.39,204.81 528.59,214.7 		"/>
		<path class="st0" d="M240.65,628.56c4.48-6.39,8.96-12.79,13.44-19.18l2.42,1.73c-4.45,6.27-8.91,12.55-13.36,18.82
			C242.31,629.47,241.48,629.02,240.65,628.56z"/>
		<path class="st0" d="M260.95,599.44c4.52-6.39,9.05-12.79,13.57-19.18l2.44,1.73c-4.5,6.27-9,12.55-13.5,18.82
			C262.62,600.36,261.78,599.9,260.95,599.44z"/>
	</g>
</g>
<g>
	<path class="st0" d="M138.37,630.99c-7.65-5.56-15.02-11.52-22.07-17.88C19.23,525.85-3.25,376.19,51.29,259.68
		c66.03-142.19,229.86-198.52,375.8-154.85c-146.9-47.93-313.95,8.59-381.47,152.18c-62.21,132.31-13.75,290.61,70.26,364.51
		c7.03,6.18,13.43,11.01,18.41,14.53C135.65,634.36,137.01,632.68,138.37,630.99z"/>
</g>
<g>
	<g>
		<path class="st0" d="M119.07,328.4c5.23,0,10.24-4.6,10-10c-0.24-5.42-4.39-10-10-10c-5.23,0-10.24,4.6-10,10
			C109.32,323.81,113.47,328.4,119.07,328.4L119.07,328.4z"/>
	</g>
</g>
<g>
	<g>
		<path class="st0" d="M560.4,535.17c3.92,0,7.68-3.45,7.5-7.5c-0.18-4.06-3.3-7.5-7.5-7.5c-3.92,0-7.68,3.45-7.5,7.5
			C553.08,531.73,556.19,535.17,560.4,535.17L560.4,535.17z"/>
	</g>
</g>
<g>
	<g>
		<path class="st0" d="M220.74,171.36c4.49,0,9.2-1.95,12.37-5.13c1.71-1.59,2.91-3.46,3.62-5.63c1.1-2.09,1.6-4.33,1.51-6.74
			c-0.2-4.53-1.69-9.22-5.13-12.37c-3.42-3.14-7.63-5.13-12.37-5.13c-4.49,0-9.2,1.95-12.37,5.13c-1.71,1.59-2.91,3.46-3.62,5.63
			c-1.1,2.09-1.6,4.33-1.51,6.74c0.2,4.53,1.69,9.22,5.13,12.37C211.79,169.38,216,171.36,220.74,171.36L220.74,171.36z"/>
	</g>
</g>
<rect x="23.03" y="748.05" class="st1" width="563.66" height="44.65"/>
<text transform="matrix(1 0 0 1 23.028 770.373)" class="st0 st2 st3 st4">POFACTY EXPRESS</text>
<path class="st0" d="M270.51,685.62c5.85,2.06,11.7,4.11,17.55,6.17c86.36-161.11,172.71-322.22,259.07-483.33
	C454.92,367.52,362.72,526.57,270.51,685.62z"/>
<g>
	<path class="st0" d="M546.83,572.1c-27.06,34.13-61.01,63.1-99.88,82.9c-43.69,22.67-92.98,32.97-141.99,31.57
		c-0.85,1.57-1.69,3.14-2.54,4.71c20.08,0.78,47.49-0.26,78.85-7.9c15.56-3.79,41.93-11.73,71.74-28.16
		c18.37-10.13,35.75-22.72,51.48-36.53c21.07-18.56,39.51-40.02,54.82-63.46C555.33,560.99,551.14,566.6,546.83,572.1z"/>
</g>
<path class="st0" d="M148.92,642.87c5.23,1.84,10.46,3.68,15.69,5.52C285.39,496.79,406.16,345.2,526.94,193.61
	C400.93,343.36,274.93,493.11,148.92,642.87z"/>
</svg>
