<?xml version="1.0" encoding="utf-8"?>
<!-- Generator: Adobe Illustrator 28.0.0, SVG Export Plug-In . SVG Version: 6.00 Build 0)  -->
<svg version="1.1" id="Слой_1" xmlns="http://www.w3.org/2000/svg" xmlns:xlink="http://www.w3.org/1999/xlink" x="0px" y="0px"
	 viewBox="0 0 595.28 841.89" style="enable-background:new 0 0 595.28 841.89;" xml:space="preserve">
<style type="text/css">
	.st0{fill:none;}
	.st1{font-family:'Montserrat-Medium';}
	.st2{font-size:41.1203px;}
	.st3{letter-spacing:9;}
</style>
<g>
	<path d="M241.77,556.92c1.02-1.23,2.03-2.46,3.05-3.7c-8.89-10.86-17.96-22.6-27.05-35.27c-10.56-14.71-19.96-29.01-28.34-42.68
		l-4.13-6.96l-3.96-7.06l-1.98-3.53l-1.9-3.57l-3.78-7.16c-1.25-2.39-2.4-4.83-3.61-7.24c-1.17-2.43-2.43-4.82-3.54-7.28
		l-6.73-14.73c-8.74-19.75-16.05-40.11-22.26-60.81c-6.13-20.72-11.06-41.82-14.74-63.17c-3.68-21.35-6.03-42.95-7.36-64.65
		c-0.21,21.75,1.22,43.53,3.98,65.17c2.91,21.6,7.14,43.07,12.89,64.15c5.65,21.11,12.92,41.79,21.42,61.94
		c2.16,5.02,4.46,9.99,6.69,14.98c1.11,2.49,2.37,4.92,3.55,7.39c1.21,2.45,2.37,4.93,3.63,7.36l3.79,7.28l1.9,3.63l1.99,3.59
		l3.98,7.18l4.16,7.08c9.88,16.9,22.12,35.22,37.29,53.95C227.77,541.53,234.83,549.55,241.77,556.92z"/>
	<path d="M316.98,620.7c-0.82-0.66-1.54-1.24-2.13-1.71c-0.6,1.03-1.19,2.06-1.79,3.09c0.5,0.37,1.11,0.83,1.81,1.35
		c29.65,21.92,54.76,35.55,55.04,35.1C370.19,658.1,347.87,645.4,316.98,620.7z"/>
</g>
<g>
	<path d="M444.85,461.6c-1.44-5.18-3.11-10.28-4.66-15.42l-2.53-7.65c-0.42-1.27-0.84-2.55-1.27-3.82c-0.19-0.56-0.65-1.9-1.33-3.8
		c-1.62-4.56-4.07-11.19-4.41-12.11c-1.46,2.52-2.92,5.05-4.38,7.57c3.65,9.23,8.37,21.77,13.35,36.81
		c23.9,72.19,29.12,125.55,29.04,124.6C464.87,545.17,456.93,502.81,444.85,461.6z"/>
	<path d="M398.12,360.86c1.46-1.83,2.92-3.66,4.37-5.49c-4.57-9.62-10.58-21.44-18.27-34.63c-8.85-15.18-16.37-26.12-21.43-33.44
		c-15-21.71-29.03-38.78-39.57-50.87c-28.25-32.38-60.32-61.37-95.34-85.98c33.26,26.91,63.98,56.77,91.2,89.5
		c13.58,16.39,26.44,33.37,38.25,51.06c5.58,8.36,18.54,28,32.86,54.64C393.5,351.8,396.19,357.03,398.12,360.86z"/>
</g>
<g>
	<path d="M501.7,230.86c-7.57-8.71-15.67-17.47-24.36-26.2c-45-45.23-92.69-76.76-135.46-98.95c24.39,15.57,50.94,34.38,78.37,57.01
		c30.42,25.1,56.09,50.09,77.45,73.15C499.03,234.2,500.36,232.53,501.7,230.86z"/>
	<path d="M574.81,452.48c0.2-29.49-3.04-59.2-9.78-87.92c-0.96-4.56-2.88-11.08-4-15.65c-1.09-3.57-2.98-10.04-4.08-13.54
		c-1.25-3.57-3.35-9.84-4.65-13.36c0,0-2.05-5.51-4.44-11.3c-3.53-8.56-12.35-27.14-25.14-51.09c-1.53,2.5-3.06,5-4.59,7.49
		c5.76,9.75,11.77,20.9,17.6,33.43c0,0,8.14,17.24,14.28,35.05c20.83,60.33,25.65,125.49,17.54,188.69
		C572.23,500.72,574.67,476.57,574.81,452.48z"/>
</g>
<g>
	<path d="M77.01,374.87c38.67-61.71,94.22-113.04,158.47-147.48c77.48-41.74,168.51-58.79,255.73-47.53
		c-42.5-2.43-85.05,0.45-126.57,8.74C249.21,211.13,145.79,279.71,77.01,374.87L77.01,374.87z"/>
</g>
<g>
	<path d="M408.99,347.21c-36.29,6.31-86.25,19.51-137.7,50.21C169.81,457.97,116,554.66,116.55,555.1c0.44,0.36,6.71-8.95,6.71-8.95
		c48.17-57.93,104.45-125.61,198.24-165.76c18.44-7.89,45.69-17.87,80.72-24.69C404.48,352.87,406.73,350.04,408.99,347.21z"/>
	<path d="M481.14,334.38c-0.9,1.78-1.81,3.56-2.71,5.34c37.72-5.57,76.28-7.4,115.18-5.41C555.9,330.07,518.19,330.19,481.14,334.38
		z"/>
</g>
<g>
	<g>
		<path d="M227.7,654.18c4.48-6.39,8.96-12.79,13.44-19.18l2.42,1.73c-4.45,6.27-8.91,12.55-13.36,18.82
			C229.36,655.1,228.53,654.64,227.7,654.18z"/>
		<polygon points="289.17,566.01 296.01,556.16 297.91,557.47 291.11,567.36 		"/>
		<polygon points="302.86,546.31 309.71,536.45 311.5,537.69 304.7,547.58 		"/>
		<polygon points="316.56,526.6 323.4,516.74 325.09,517.91 318.29,527.8 		"/>
		<polygon points="330.25,506.89 337.1,497.03 338.68,498.12 331.88,508.02 		"/>
		<polygon points="343.95,487.18 350.79,477.32 352.27,478.34 345.48,488.23 		"/>
		<polygon points="357.64,467.47 364.49,457.61 365.86,458.56 359.07,468.45 		"/>
		<polygon points="371.34,447.76 378.18,437.9 379.45,438.78 372.66,448.67 		"/>
		<polygon points="385.03,428.05 391.88,418.19 393.04,419 386.25,428.89 		"/>
		<polygon points="398.72,408.34 405.57,398.48 406.63,399.22 399.84,409.11 		"/>
		<polygon points="412.42,388.63 419.27,378.78 420.22,379.44 413.43,389.33 		"/>
		<polygon points="426.11,368.92 432.96,359.07 433.81,359.65 427.02,369.55 		"/>
		<polygon points="439.81,349.21 446.66,339.36 447.4,339.87 440.61,349.76 		"/>
		<polygon points="453.5,329.5 460.35,319.65 460.99,320.09 454.2,329.98 		"/>
		<polygon points="467.2,309.79 474.05,299.94 474.58,300.31 467.79,310.2 		"/>
		<polygon points="480.89,290.08 487.74,280.23 488.17,280.53 481.38,290.42 		"/>
		<polygon points="494.59,270.37 501.43,260.52 501.76,260.75 494.97,270.64 		"/>
		<polygon points="508.28,250.66 515.13,240.81 515.36,240.97 508.56,250.86 		"/>
		<polygon points="521.98,230.95 528.82,221.1 528.95,221.18 522.15,231.08 		"/>
		<polygon points="535.67,211.25 542.52,201.39 542.54,201.4 535.74,211.29 		"/>
		<path d="M247.8,625.15c4.48-6.39,8.96-12.79,13.44-19.18l2.42,1.73c-4.45,6.27-8.91,12.55-13.36,18.82
			C249.46,626.06,248.63,625.61,247.8,625.15z"/>
		<path d="M268.1,596.03c4.52-6.39,9.05-12.79,13.57-19.18l2.44,1.73c-4.5,6.27-9,12.55-13.5,18.82
			C269.77,596.95,268.93,596.49,268.1,596.03z"/>
	</g>
</g>
<g>
	<path d="M145.52,627.58c-7.65-5.56-15.02-11.52-22.07-17.88C26.38,522.44,3.9,372.78,58.44,256.27
		c66.03-142.19,229.86-198.52,375.8-154.85c-146.9-47.93-313.95,8.59-381.47,152.18c-62.21,132.31-13.75,290.61,70.26,364.51
		c7.03,6.18,13.43,11.01,18.41,14.53C142.8,630.95,144.16,629.27,145.52,627.58z"/>
</g>
<g>
	<g>
		<path d="M126.22,324.99c5.23,0,10.24-4.6,10-10c-0.24-5.42-4.39-10-10-10c-5.23,0-10.24,4.6-10,10
			C116.47,320.4,120.62,324.99,126.22,324.99L126.22,324.99z"/>
	</g>
</g>
<g>
	<g>
		<path d="M567.55,531.76c3.92,0,7.68-3.45,7.5-7.5c-0.18-4.06-3.3-7.5-7.5-7.5c-3.92,0-7.68,3.45-7.5,7.5
			C560.23,528.32,563.34,531.76,567.55,531.76L567.55,531.76z"/>
	</g>
</g>
<g>
	<g>
		<path d="M227.89,167.95c4.49,0,9.2-1.95,12.37-5.13c1.71-1.59,2.91-3.46,3.62-5.63c1.1-2.09,1.6-4.33,1.51-6.74
			c-0.2-4.53-1.69-9.22-5.13-12.37c-3.42-3.14-7.63-5.13-12.37-5.13c-4.49,0-9.2,1.95-12.37,5.13c-1.71,1.59-2.91,3.46-3.62,5.63
			c-1.1,2.09-1.6,4.33-1.51,6.74c0.2,4.53,1.69,9.22,5.13,12.37C218.94,165.97,223.15,167.95,227.89,167.95L227.89,167.95z"/>
	</g>
</g>
<rect x="30.18" y="744.64" class="st0" width="563.66" height="44.65"/>
<text transform="matrix(1 0 0 1 30.1784 766.9644)" class="st1 st2 st3">POFACTY EXPRESS</text>
<path d="M277.66,682.22c5.85,2.06,11.7,4.11,17.55,6.17c86.36-161.11,172.71-322.22,259.07-483.33
	C462.07,364.11,369.87,523.16,277.66,682.22z"/>
<g>
	<path d="M553.98,568.69c-27.06,34.13-61.01,63.1-99.88,82.9c-43.69,22.67-92.98,32.97-141.99,31.57c-0.85,1.57-1.69,3.14-2.54,4.71
		c20.08,0.78,47.49-0.26,78.85-7.9c15.56-3.79,41.93-11.73,71.74-28.17c18.37-10.13,35.75-22.72,51.48-36.53
		c21.07-18.56,39.51-40.02,54.82-63.46C562.48,557.58,558.29,563.19,553.98,568.69z"/>
</g>
<path d="M156.08,639.46c5.23,1.84,10.46,3.68,15.69,5.52C292.54,493.38,413.31,341.79,534.09,190.2
	C408.08,339.95,282.08,489.71,156.08,639.46z"/>
</svg>
