<?xml version="1.0" encoding="iso-8859-1"?>
<!-- Generator: Adobe Illustrator 19.0.0, SVG Export Plug-In . SVG Version: 6.00 Build 0)  -->
<svg version="1.1" id="Capa_1" xmlns="http://www.w3.org/2000/svg" xmlns:xlink="http://www.w3.org/1999/xlink" x="0px" y="0px"
	 viewBox="0 0 162.785 162.785" style="enable-background:new 0 0 162.785 162.785;" xml:space="preserve">
<g>
	<g>
		<path style="fill:#010002;" d="M158.983,160.394H86.305c-2.101,0-3.802-1.7-3.802-3.802c0-2.101,1.7-3.802,3.802-3.802h68.342
			l-6.909-52.215c-0.045-0.327-0.045-0.653-0.004-0.98l6.928-53.87H61.099l0.345,2.666c0.267,2.087-1.203,3.995-3.286,4.262
			c-2.112,0.275-3.991-1.203-4.258-3.282l-0.898-6.957c-0.137-1.084,0.197-2.176,0.917-3c0.72-0.824,1.764-1.292,2.855-1.292
			h102.209c1.092,0,2.131,0.468,2.855,1.292c0.72,0.817,1.054,1.908,0.917,2.992l-7.414,57.665l7.41,56.024
			c0.145,1.084-0.186,2.183-0.91,3C161.122,159.919,160.078,160.394,158.983,160.394z"/>
		<path style="fill:#010002;" d="M142.529,55.69c-2.101,0-3.802-1.7-3.802-3.802c0-23.1-13.837-41.893-30.845-41.893
			S77.038,28.788,77.038,51.888c0,2.101-1.7,3.802-3.802,3.802c-2.101,0-3.802-1.7-3.802-3.802
			c0-27.295,17.249-49.497,38.448-49.497s38.448,22.202,38.448,49.497C146.33,53.99,144.63,55.69,142.529,55.69z"/>
	</g>
	<g>
		<path style="fill:#010002;" d="M74.224,160.394H3.802c-1.095,0-2.138-0.475-2.859-1.299c-0.724-0.824-1.054-1.916-0.91-3
			l5.094-38.441L0.03,78.062c-0.137-1.084,0.197-2.176,0.917-2.992c0.72-0.824,1.764-1.292,2.855-1.292h70.421
			c1.092,0,2.131,0.468,2.855,1.292c0.72,0.817,1.054,1.908,0.917,2.992l-5.09,39.592l5.086,38.441c0.145,1.084-0.186,2.183-0.91,3
			C76.362,159.919,75.319,160.394,74.224,160.394z M8.142,152.79h61.745l-4.585-34.631c-0.045-0.327-0.045-0.653-0.004-0.98
			l4.604-35.797H8.124l4.611,35.797c0.041,0.327,0.041,0.653-0.004,0.98L8.142,152.79z"/>
		<path style="fill:#010002;" d="M62.893,88.257c-2.101,0-3.802-1.7-3.802-3.802c0-15.274-9.007-27.696-20.078-27.696
			c-11.067,0-20.071,12.422-20.071,27.696c0,2.101-1.7,3.802-3.802,3.802s-3.802-1.7-3.802-3.802c0-19.462,12.415-35.3,27.674-35.3
			c15.263,0,27.681,15.838,27.681,35.3C66.694,86.557,64.994,88.257,62.893,88.257z"/>
	</g>
</g>
<g>
</g>
<g>
</g>
<g>
</g>
<g>
</g>
<g>
</g>
<g>
</g>
<g>
</g>
<g>
</g>
<g>
</g>
<g>
</g>
<g>
</g>
<g>
</g>
<g>
</g>
<g>
</g>
<g>
</g>
</svg>
